<svg xmlns="http://www.w3.org/2000/svg" viewBox="121.69 3.52 362 362">
<rect x="121.69" y="3.52" width="362" height="362" rx="58" fill="#0d1218"/>
<g transform="matrix(-2.7440816,-0.02088656,0.02088656,-2.7440816,712.67681,716.28996)"><g transform="translate(-66.267804,-13.498997)" fill="#86abe9">
<path d="m 226.1243,197.8885 c 0,5.093 -4.1296,9.2225 -9.2226,9.2225 -5.0922,0 -9.2208,-4.1295 -9.2208,-9.2225 0,-1.0366 0.1713,-2.0331 0.486,-2.9635 l -9.8643,-6.7617 c -1.6008,1.3382 -3.6617,2.1443 -5.9113,2.1443 -5.0938,0 -9.2225,-4.1287 -9.2225,-9.2217 0,-1.0365 0.1713,-2.0339 0.4869,-2.9635 l -9.8652,-6.7626 c -0.9834,0.8235 -2.1417,1.4444 -3.4104,1.8009 v 15.8504 c 3.8783,1.0896 6.7209,4.6513 6.7209,8.8774 0,4.226 -2.8426,7.7886 -6.7209,8.8791 v 15.8495 c 3.8783,1.0895 6.7209,4.6521 6.7209,8.8782 0,5.093 -4.1287,9.2226 -9.2217,9.2226 -5.0922,0 -9.2218,-4.1296 -9.2218,-9.2226 0,-4.2261 2.8435,-7.7887 6.7209,-8.8782 v -15.8495 c -3.8774,-1.0905 -6.7209,-4.6531 -6.7209,-8.8791 0,-4.2261 2.8435,-7.7878 6.7209,-8.8774 v -15.8504 c -3.8774,-1.0896 -6.7209,-4.6522 -6.7209,-8.8791 0,-5.0921 4.1296,-9.2208 9.2218,-9.2208 5.093,0 9.2217,4.1287 9.2217,9.2208 0,1.0365 -0.1713,2.033 -0.4861,2.9635 l 9.8652,6.7626 c 1.6008,-1.3383 3.6617,-2.1435 5.9112,-2.1435 5.0931,0 9.2218,4.1295 9.2218,9.2217 0,1.0365 -0.1705,2.033 -0.4861,2.9626 l 9.8643,6.7626 c 1.6,-1.3383 3.6608,-2.1435 5.9104,-2.1435 2.2635,0 4.3356,0.8157 5.9408,2.1687 l 10.1731,-6.92 c -0.2879,-0.8913 -0.4426,-1.8426 -0.4426,-2.8295 0,-5.0931 4.1286,-9.2217 9.2225,-9.2217 2.2226,0 4.2618,0.7878 5.8539,2.0973 l 9.9122,-6.7425 c -0.3096,-0.9218 -0.4774,-1.9096 -0.4774,-2.9366 0,-5.093 4.1287,-9.2217 9.2217,-9.2217 5.093,0 9.2226,4.1287 9.2226,9.2217 0,4.2261 -2.8426,7.7878 -6.7209,8.8783 v 15.8504 c 3.8783,1.0904 6.7209,4.6521 6.7209,8.8773 0,4.2261 -2.8426,7.7887 -6.7209,8.8791 v 15.8487 c 3.8783,1.0904 6.7209,4.653 6.7209,8.8791 0,5.093 -4.1296,9.2217 -9.2226,9.2217 -5.093,0 -9.2217,-4.1287 -9.2217,-9.2217 0,-4.2261 2.8426,-7.7887 6.7208,-8.8791 v -15.8487 c -3.8782,-1.0904 -6.7208,-4.653 -6.7208,-8.8791 0,-4.2252 2.8426,-7.7878 6.7208,-8.8773 v -15.8504 c -1.2817,-0.36 -2.4495,-0.9905 -3.44,-1.8261 l -9.8625,6.7087 c 0.333,0.9521 0.5139,1.9765 0.5139,3.0426 0,5.093 -4.1287,9.2217 -9.2209,9.2217 -2.3043,0 -4.4113,-0.8452 -6.0278,-2.2418 l -10.1217,6.8844 c 0.3105,0.9226 0.4783,1.9104 0.4783,2.9374 z"/><path d="m 232.573,214.6936 c 0,4.2261 2.8425,7.7887 6.7208,8.8782 v 15.8496 c -3.8783,1.0895 -6.7208,4.6521 -6.7208,8.8782 0,5.0939 4.1286,9.2226 9.2225,9.2226 5.0922,0 9.2209,-4.1287 9.2209,-9.2226 0,-4.2261 -2.8426,-7.7887 -6.72,-8.8782 v -15.8496 c 3.8774,-1.0895 6.72,-4.6521 6.72,-8.8782 0,-5.093 -4.1287,-9.2217 -9.2209,-9.2217 -5.0939,0 -9.2225,4.1287 -9.2225,9.2217 z m -6.4487,16.8017 c 0,5.093 -4.1296,9.2226 -9.2226,9.2226 -5.0922,0 -9.2208,-4.1296 -9.2208,-9.2226 0,-5.093 4.1286,-9.2217 9.2208,-9.2217 5.093,0 9.2226,4.1287 9.2226,9.2217 z m -24.5112,-16.8026 c 0,4.2261 -2.8435,7.7887 -6.7218,8.8791 v 15.8478 c 3.8783,1.0904 6.7218,4.653 6.7218,8.8791 0,5.0939 -4.1287,9.2226 -9.2218,9.2226 -5.0938,0 -9.2225,-4.1287 -9.2225,-9.2226 0,-4.2261 2.8426,-7.7887 6.7208,-8.8782 V 223.571 c -3.8782,-1.0896 -6.7208,-4.6522 -6.7208,-8.8783 0,-5.0939 4.1287,-9.2225 9.2225,-9.2225 5.0931,0 9.2218,4.1286 9.2218,9.2225 z"/>
</g></g></svg>